<?xml version="1.0" standalone="no"?>
<!DOCTYPE svg PUBLIC "-//W3C//DTD SVG 20010904//EN"
 "http://www.w3.org/TR/2001/REC-SVG-20010904/DTD/svg10.dtd">
<svg version="1.0" xmlns="http://www.w3.org/2000/svg"
 width="512.000000pt" height="512.000000pt" viewBox="0 0 512.000000 512.000000"
 preserveAspectRatio="xMidYMid meet">

<g transform="translate(0.000000,512.000000) scale(0.100000,-0.100000)"
fill="#000000" stroke="none">
<path d="M3169 4015 c-118 -20 -186 -43 -224 -77 -48 -42 -64 -75 -72 -155
l-8 -68 -530 -3 -531 -2 -12 44 c-15 58 -64 113 -127 142 -89 42 -172 26 -247
-46 -34 -32 -50 -58 -59 -93 l-13 -47 -543 0 -542 0 -17 -31 c-39 -76 -127
-321 -159 -442 -66 -252 -79 -355 -78 -612 0 -264 19 -419 78 -642 31 -116
122 -370 143 -398 4 -5 23 -18 44 -27 29 -13 44 -32 75 -90 139 -265 461 -369
733 -236 83 40 206 161 241 235 l24 52 231 1 231 0 24 -52 c35 -76 157 -197
239 -237 71 -34 180 -61 250 -61 113 0 248 48 341 121 54 44 133 143 156 199
8 19 22 43 30 52 21 24 69 32 101 18 18 -8 134 -162 362 -482 371 -521 500
-698 561 -773 62 -75 134 -131 234 -180 351 -173 763 -32 936 320 56 114 73
189 72 320 0 134 3 124 -202 690 -83 231 -218 604 -299 828 l-147 408 -12 -91
c-24 -179 -88 -350 -184 -491 -68 -101 -194 -225 -299 -294 -92 -62 -222 -125
-256 -125 -29 0 -135 63 -163 97 -35 42 -51 94 -51 165 0 62 14 114 40 143 48
55 62 105 68 240 3 78 9 133 16 137 6 4 61 8 122 8 72 0 126 5 155 15 179 61
227 298 85 423 -60 52 -95 62 -225 62 -79 0 -122 4 -133 13 -13 9 -17 39 -21
137 -5 140 -16 176 -71 238 -122 135 -347 94 -418 -75 -6 -15 -14 -89 -17
-163 l-6 -135 -55 1 c-151 2 -290 118 -326 273 -17 69 -17 125 -3 207 10 60
12 64 67 102 185 129 400 190 634 179 139 -6 238 -28 362 -82 44 -19 81 -33
83 -31 2 2 -3 57 -11 122 -16 117 -28 151 -70 186 -74 62 -407 97 -607 63z
m295 -652 c158 -110 80 -364 -111 -363 -101 1 -203 102 -203 200 0 67 57 150
125 182 56 26 135 19 189 -19z m-484 -458 c50 -26 100 -103 100 -154 0 -31
-48 -79 -90 -92 -82 -25 -158 18 -180 100 -15 56 0 100 47 141 37 33 66 34
123 5z m-1279 -432 c32 -31 30 -80 -5 -110 -24 -21 -37 -23 -120 -23 -79 0
-97 3 -120 21 -42 33 -32 109 17 129 12 5 64 9 114 7 80 -2 95 -5 114 -24z
m1706 -18 c162 -48 195 -260 55 -356 -26 -17 -52 -24 -101 -27 -59 -3 -71 0
-113 27 -73 47 -109 133 -88 213 24 87 85 138 191 157 3 1 28 -6 56 -14z"/>
</g>
</svg>
